<mxfile host="app.diagrams.net" modified="2024-02-13T13:01:49.167Z" agent="Mozilla/5.0 (Windows NT 10.0; Win64; x64) AppleWebKit/537.36 (KHTML, like Gecko) Chrome/121.0.0.0 Safari/537.36" etag="Kwmljol47awQsDkHYxXf" version="23.1.3" type="device">
  <diagram name="Page-1" id="3NOlI5YgGFhrqcbVbegV">
    <mxGraphModel dx="1434" dy="780" grid="1" gridSize="10" guides="1" tooltips="1" connect="1" arrows="1" fold="1" page="1" pageScale="1" pageWidth="1169" pageHeight="827" math="0" shadow="0">
      <root>
        <mxCell id="0" />
        <mxCell id="1" parent="0" />
        <mxCell id="WUT2AVNJbaeFNxMrnJXd-8" style="edgeStyle=orthogonalEdgeStyle;rounded=0;orthogonalLoop=1;jettySize=auto;html=1;exitX=0.5;exitY=1;exitDx=0;exitDy=0;endArrow=none;endFill=0;" parent="1" source="WUT2AVNJbaeFNxMrnJXd-1" target="WUT2AVNJbaeFNxMrnJXd-3" edge="1">
          <mxGeometry relative="1" as="geometry" />
        </mxCell>
        <mxCell id="WUT2AVNJbaeFNxMrnJXd-9" style="edgeStyle=orthogonalEdgeStyle;rounded=0;orthogonalLoop=1;jettySize=auto;html=1;exitX=0.5;exitY=0;exitDx=0;exitDy=0;entryX=0.5;entryY=0;entryDx=0;entryDy=0;endArrow=none;endFill=0;" parent="1" source="WUT2AVNJbaeFNxMrnJXd-5" target="WUT2AVNJbaeFNxMrnJXd-4" edge="1">
          <mxGeometry relative="1" as="geometry" />
        </mxCell>
        <mxCell id="WUT2AVNJbaeFNxMrnJXd-10" style="edgeStyle=orthogonalEdgeStyle;rounded=0;orthogonalLoop=1;jettySize=auto;html=1;exitX=0.5;exitY=1;exitDx=0;exitDy=0;endArrow=none;endFill=0;" parent="1" source="WUT2AVNJbaeFNxMrnJXd-1" target="WUT2AVNJbaeFNxMrnJXd-4" edge="1">
          <mxGeometry relative="1" as="geometry" />
        </mxCell>
        <mxCell id="WUT2AVNJbaeFNxMrnJXd-11" style="edgeStyle=orthogonalEdgeStyle;rounded=0;orthogonalLoop=1;jettySize=auto;html=1;exitX=0.5;exitY=1;exitDx=0;exitDy=0;entryX=0.5;entryY=0;entryDx=0;entryDy=0;endArrow=none;endFill=0;" parent="1" source="WUT2AVNJbaeFNxMrnJXd-1" target="WUT2AVNJbaeFNxMrnJXd-2" edge="1">
          <mxGeometry relative="1" as="geometry" />
        </mxCell>
        <mxCell id="WUT2AVNJbaeFNxMrnJXd-1" value="&lt;font style=&quot;font-size: 21px;&quot;&gt;Accueil&lt;/font&gt;" style="rounded=1;whiteSpace=wrap;html=1;" parent="1" vertex="1">
          <mxGeometry x="434.00000000000006" y="190" width="160" height="80" as="geometry" />
        </mxCell>
        <mxCell id="WUT2AVNJbaeFNxMrnJXd-18" style="edgeStyle=orthogonalEdgeStyle;rounded=0;orthogonalLoop=1;jettySize=auto;html=1;exitX=0.5;exitY=1;exitDx=0;exitDy=0;endArrow=none;endFill=0;" parent="1" source="WUT2AVNJbaeFNxMrnJXd-2" target="WUT2AVNJbaeFNxMrnJXd-17" edge="1">
          <mxGeometry relative="1" as="geometry" />
        </mxCell>
        <mxCell id="WUT2AVNJbaeFNxMrnJXd-2" value="&lt;span style=&quot;font-size: 21px;&quot;&gt;Articles (blog)&lt;/span&gt;" style="rounded=1;whiteSpace=wrap;html=1;" parent="1" vertex="1">
          <mxGeometry x="140" y="310" width="160" height="80" as="geometry" />
        </mxCell>
        <mxCell id="WUT2AVNJbaeFNxMrnJXd-20" style="edgeStyle=orthogonalEdgeStyle;rounded=0;orthogonalLoop=1;jettySize=auto;html=1;exitX=0.5;exitY=1;exitDx=0;exitDy=0;entryX=0.5;entryY=0;entryDx=0;entryDy=0;endArrow=none;endFill=0;" parent="1" source="WUT2AVNJbaeFNxMrnJXd-3" target="WUT2AVNJbaeFNxMrnJXd-19" edge="1">
          <mxGeometry relative="1" as="geometry" />
        </mxCell>
        <mxCell id="WUT2AVNJbaeFNxMrnJXd-3" value="&lt;span style=&quot;font-size: 21px;&quot;&gt;Statistiques (blog)&lt;/span&gt;" style="rounded=1;whiteSpace=wrap;html=1;" parent="1" vertex="1">
          <mxGeometry x="340" y="310" width="160" height="80" as="geometry" />
        </mxCell>
        <mxCell id="WUT2AVNJbaeFNxMrnJXd-22" style="edgeStyle=orthogonalEdgeStyle;rounded=0;orthogonalLoop=1;jettySize=auto;html=1;exitX=0.5;exitY=1;exitDx=0;exitDy=0;entryX=0.5;entryY=0;entryDx=0;entryDy=0;endArrow=none;endFill=0;" parent="1" source="WUT2AVNJbaeFNxMrnJXd-4" target="WUT2AVNJbaeFNxMrnJXd-21" edge="1">
          <mxGeometry relative="1" as="geometry" />
        </mxCell>
        <mxCell id="WUT2AVNJbaeFNxMrnJXd-4" value="&lt;span style=&quot;font-size: 21px;&quot;&gt;Evènements&lt;br&gt;(blog)&lt;br&gt;&lt;/span&gt;" style="rounded=1;whiteSpace=wrap;html=1;" parent="1" vertex="1">
          <mxGeometry x="540" y="310" width="160" height="80" as="geometry" />
        </mxCell>
        <mxCell id="WUT2AVNJbaeFNxMrnJXd-12" style="edgeStyle=orthogonalEdgeStyle;rounded=0;orthogonalLoop=1;jettySize=auto;html=1;exitX=0.5;exitY=1;exitDx=0;exitDy=0;entryX=0.5;entryY=0;entryDx=0;entryDy=0;endArrow=none;endFill=0;" parent="1" source="WUT2AVNJbaeFNxMrnJXd-5" target="WUT2AVNJbaeFNxMrnJXd-6" edge="1">
          <mxGeometry relative="1" as="geometry">
            <Array as="points">
              <mxPoint x="810" y="410" />
              <mxPoint x="990" y="410" />
            </Array>
          </mxGeometry>
        </mxCell>
        <mxCell id="WUT2AVNJbaeFNxMrnJXd-13" style="edgeStyle=orthogonalEdgeStyle;rounded=0;orthogonalLoop=1;jettySize=auto;html=1;exitX=0.5;exitY=1;exitDx=0;exitDy=0;entryX=0.5;entryY=0;entryDx=0;entryDy=0;endArrow=none;endFill=0;" parent="1" source="WUT2AVNJbaeFNxMrnJXd-5" target="WUT2AVNJbaeFNxMrnJXd-7" edge="1">
          <mxGeometry relative="1" as="geometry" />
        </mxCell>
        <mxCell id="WUT2AVNJbaeFNxMrnJXd-5" value="&lt;span style=&quot;font-size: 21px;&quot;&gt;Inscription/&lt;br&gt;Connection&lt;/span&gt;" style="rounded=1;whiteSpace=wrap;html=1;" parent="1" vertex="1">
          <mxGeometry x="730" y="310" width="160" height="80" as="geometry" />
        </mxCell>
        <mxCell id="WUT2AVNJbaeFNxMrnJXd-6" value="&lt;span style=&quot;font-size: 21px;&quot;&gt;Historique&lt;/span&gt;" style="rounded=1;whiteSpace=wrap;html=1;" parent="1" vertex="1">
          <mxGeometry x="910" y="420" width="160" height="80" as="geometry" />
        </mxCell>
        <mxCell id="WUT2AVNJbaeFNxMrnJXd-7" value="&lt;span style=&quot;font-size: 21px;&quot;&gt;Inscriptions&amp;nbsp;&lt;br&gt;évènements&lt;/span&gt;" style="rounded=1;whiteSpace=wrap;html=1;" parent="1" vertex="1">
          <mxGeometry x="730" y="420" width="160" height="80" as="geometry" />
        </mxCell>
        <mxCell id="WUT2AVNJbaeFNxMrnJXd-25" style="edgeStyle=orthogonalEdgeStyle;rounded=0;orthogonalLoop=1;jettySize=auto;html=1;exitX=0.5;exitY=1;exitDx=0;exitDy=0;entryX=0.5;entryY=1;entryDx=0;entryDy=0;endArrow=none;endFill=0;" parent="1" source="WUT2AVNJbaeFNxMrnJXd-17" target="WUT2AVNJbaeFNxMrnJXd-1" edge="1">
          <mxGeometry relative="1" as="geometry">
            <mxPoint x="530" y="280" as="targetPoint" />
            <Array as="points">
              <mxPoint x="220" y="520" />
              <mxPoint x="120" y="520" />
              <mxPoint x="120" y="290" />
              <mxPoint x="514" y="290" />
            </Array>
          </mxGeometry>
        </mxCell>
        <mxCell id="WUT2AVNJbaeFNxMrnJXd-17" value="&lt;span style=&quot;font-size: 21px;&quot;&gt;Articles&lt;/span&gt;" style="rounded=1;whiteSpace=wrap;html=1;" parent="1" vertex="1">
          <mxGeometry x="140" y="420" width="160" height="80" as="geometry" />
        </mxCell>
        <mxCell id="WUT2AVNJbaeFNxMrnJXd-26" style="edgeStyle=orthogonalEdgeStyle;rounded=0;orthogonalLoop=1;jettySize=auto;html=1;exitX=0.5;exitY=1;exitDx=0;exitDy=0;entryX=0.5;entryY=1;entryDx=0;entryDy=0;endArrow=none;endFill=0;" parent="1" source="WUT2AVNJbaeFNxMrnJXd-19" target="WUT2AVNJbaeFNxMrnJXd-17" edge="1">
          <mxGeometry relative="1" as="geometry" />
        </mxCell>
        <mxCell id="WUT2AVNJbaeFNxMrnJXd-19" value="&lt;span style=&quot;font-size: 21px;&quot;&gt;Statistiques (articles)&lt;/span&gt;" style="rounded=1;whiteSpace=wrap;html=1;" parent="1" vertex="1">
          <mxGeometry x="340" y="420" width="160" height="80" as="geometry" />
        </mxCell>
        <mxCell id="WUT2AVNJbaeFNxMrnJXd-24" style="edgeStyle=orthogonalEdgeStyle;rounded=0;orthogonalLoop=1;jettySize=auto;html=1;exitX=1;exitY=0.5;exitDx=0;exitDy=0;endArrow=none;endFill=0;" parent="1" source="WUT2AVNJbaeFNxMrnJXd-21" target="WUT2AVNJbaeFNxMrnJXd-7" edge="1">
          <mxGeometry relative="1" as="geometry" />
        </mxCell>
        <mxCell id="WUT2AVNJbaeFNxMrnJXd-27" style="edgeStyle=orthogonalEdgeStyle;rounded=0;orthogonalLoop=1;jettySize=auto;html=1;exitX=0.5;exitY=1;exitDx=0;exitDy=0;entryX=0.5;entryY=1;entryDx=0;entryDy=0;endArrow=none;endFill=0;" parent="1" source="WUT2AVNJbaeFNxMrnJXd-21" target="WUT2AVNJbaeFNxMrnJXd-19" edge="1">
          <mxGeometry relative="1" as="geometry" />
        </mxCell>
        <mxCell id="WUT2AVNJbaeFNxMrnJXd-21" value="&lt;span style=&quot;font-size: 21px;&quot;&gt;Evènements&lt;br&gt;(articles)&lt;/span&gt;" style="rounded=1;whiteSpace=wrap;html=1;" parent="1" vertex="1">
          <mxGeometry x="540" y="420" width="160" height="80" as="geometry" />
        </mxCell>
        <mxCell id="WUT2AVNJbaeFNxMrnJXd-33" value="&lt;font style=&quot;font-size: 30px;&quot;&gt;Arborescence&amp;nbsp;&amp;nbsp;&lt;/font&gt;" style="text;html=1;align=center;verticalAlign=middle;whiteSpace=wrap;rounded=0;" parent="1" vertex="1">
          <mxGeometry x="90" y="30" width="60" height="30" as="geometry" />
        </mxCell>
        <mxCell id="cN3DZ_V7nxuyyjBycijB-2" value="Cible : résident des bouches du rhones" style="text;html=1;align=center;verticalAlign=middle;whiteSpace=wrap;rounded=0;" vertex="1" parent="1">
          <mxGeometry x="310" y="40" width="430" height="110" as="geometry" />
        </mxCell>
      </root>
    </mxGraphModel>
  </diagram>
</mxfile>
